<svg xmlns="http://www.w3.org/2000/svg" xmlns:xlink="http://www.w3.org/1999/xlink" viewBox="0 0 640 480" xmlns:v="https://vecta.io/nano"><style><![CDATA[.B{fill-rule:evenodd}.C{stroke:#512007}.D{stroke-width:.5}.E{fill:#dd8b59}.F{fill:#fecf3e}.G{stroke-width:1.2}.H{fill:#bcbcbc}]]></style><defs><linearGradient xlink:href="#F" id="A" x1="444.4" x2="470.9" y1="592.2" y2="577.1" gradientTransform="matrix(-1.08448 0 0 1.26674 909.5 -414.7)"/><linearGradient xlink:href="#F" id="B" x1="568.774" x2="392.507" y1="356.292" y2="356.292"/><linearGradient xlink:href="#F" id="C" x1="458.2" x2="520.5" y1="562.5" y2="552.8" gradientTransform="matrix(-1.01941 0 0 1.3554 909.5 -414.7)"/><linearGradient xlink:href="#F" id="D" x1="562.008" x2="532.619" y1="318.362" y2="320.263"/><linearGradient xlink:href="#F" id="E" x1="577.754" x2="514.959" y1="335.785" y2="341.749"/><linearGradient id="F" gradientUnits="userSpaceOnUse"><stop offset="0" stop-color="#a43907"/><stop offset="1" stop-color="#fff"/></linearGradient><linearGradient xlink:href="#F" id="G" x1="395.881" x2="652.791" y1="370.237" y2="372.71"/><linearGradient xlink:href="#F" id="H" x1="577.875" x2="556.923" y1="352.788" y2="354.308"/><linearGradient xlink:href="#F" id="I" x1="581.4" x2="558.9" y1="512" y2="514.3" gradientTransform="matrix(-.88927 0 0 1.54542 908.8 -413.6)"/><linearGradient xlink:href="#F" id="J" x1="552" x2="589.8" y1="517.9" y2="503.9" gradientTransform="matrix(-.91096 0 0 1.52008 909.5 -414.7)"/><linearGradient xlink:href="#F" id="K" x1="218.597" x2="241.317" y1="569.333" y2="554.801"/><path id="L" d="M413.6 471c.3-4.6 8.8-31 8.8-31m-5.9 31.3 6.7-31.1m-4.4 31.2 5.6-31.2m-10.5 27c1.5-.8 5.8-2 5.8-2m-3.7-2.6c1.4 0 4.3-1.2 4.3-1.2m-3.5-2.3a24 24 0 0 1 4.4-1.2m-3.8-3.2 4.7-.8m-2.6-3c0 .3 3.2.3 3.2.3m-2.4-3.7 3.2.5"/><path id="M" d="M413.6 471c.3-4.6 8.8-31 8.8-31m-5.9 30.1 6.7-30m-3.7 27.7c.2-1.7 4.9-27.6 4.9-27.6m-10.5 27c1.5-.8 5.8-2 5.8-2m-3.7-2.6c1.4 0 4.3-1.2 4.3-1.2m-3.5-2.3a24 24 0 0 1 4.4-1.2m-3.8-3.2 4.7-.8m-2.6-3c0 .3 3.2.3 3.2.3m-2.4-3.7 3.2.5"/></defs><g fill="#012169"><path d="M0 0h640v480H0z"/><path d="M0 0h400v200H0z" class="B"/></g><path fill="url(#K)" stroke="#fff" stroke-width="10" d="M412.9 308.9a11.3 12.7 0 0 0-1.7 0c-3 .6-7.6 11.3-10 17.6-4.1 5.4-6.2 9.6-7.8 12.7-.7 1.2-1.7 2.6-1.4 4.2-6 1.6-6.3 7.4-6.3 9.6 0 2.5.7 3.7.7 3.7l3.6 7.5v.1c3.8 9 9.4 20.9 12.7 21.8 4.4 1.5 16-3.3 24.8-11.7a140.6 157.8 0 0 0 53.2 12.1c20.4 0 38.7-5.5 53-12.1 8.8 8.4 20.4 13.2 25 11.7 3-1 8.7-13 12.6-21.8l3.5-7.6s.7-1.2.7-3.6c0-2.2-.3-8-6.3-9.6.3-1.6-.6-3-1.3-4.3-1.7-3.2-3.8-7.4-7.7-13-2.6-6.2-7.2-16.7-10-17.2-4.2-.8-13 1.5-13 2.4v.4l-17.7 18.6c0 .5.9 14 4.3 26a126 141.5 0 0 1-43.3 8.2c-17 0-31.5-3.4-43.2-8.3a116.6 130.9 0 0 0 4.3-26L424 311.8v-.4c0-.7-6.8-2.5-11.1-2.5zm4.4 23c2.3 0 4.6 2.2 6.5 4.4l-.1 1.3a67.5 75.7 0 0 1-2.8 10.2 73.6 82.6 0 0 1-12.2-9.9c1.9-2.3 5-5.4 8.2-5.8h.4zm126.6 0h.4c3.3.6 6.3 3.7 8.3 6a73.4 82.4 0 0 1-12.3 10 67.1 75.4 0 0 1-2.8-10.3 14.6 16.4 0 0 1-.2-1.3c2-2.3 4.3-4.3 6.6-4.3zm-142.4 26.4c2.4 2 5.4 4.4 9.1 6.8a10.5 11.8 0 0 1-3.2 1.6c-1.6.4-3.1.3-4.7 0a15 16.8 0 0 1-1-5.6 60.3 67.7 0 0 1-.2-2.8zm158.2 0-.1 2.8a15 17 0 0 1-1 5.5 10.3 11.5 0 0 1-8-1.5c3.7-2.4 6.8-4.8 9.1-6.8z" class="B"/><g stroke="#000" class="B"><g class="G"><path fill="url(#A)" d="M426.2 339.6s-6.1-11.1-11.1-10.2c-5.1.7-10 7.8-10.2 8.2a44.5 52 0 0 1-7.5-9.5c.3-.4 7.8-20.9 12-21.8 4-.9 12.7 1.5 12.7 2.3z"/><path fill="url(#C)" d="M439.8 327.7c0 .8-2.2 30.2-10.9 40.4-8.6 10.3-23 16.6-28.2 15.1-5-1.6-16.5-31.3-16.5-31.3s12.2 14.2 21.3 11.8c9.1-2.3 14.6-20.1 16.3-28.9 1.7-8.6.3-25.7.3-25.7l17.8 18.6z"/><path fill="url(#D)" d="M532.9 339.6s6.2-11.1 11.2-10.2c5 .7 9.8 7.8 10.2 8.2a44.5 52 0 0 0 7.5-9.5c-.4-.4-7.9-20.9-12-21.8s-12.8 1.5-12.8 2.3z"/><path fill="url(#E)" d="M519.3 327.7c0 .8 2.2 30.2 10.9 40.4 8.7 10.3 23 16.6 28.2 15.1 5-1.6 16.6-31.3 16.6-31.3s-12.3 14.2-21.4 11.8c-9-2.3-14.5-20.1-16.2-28.9-1.8-8.6-.4-25.7-.4-25.7l-17.8 18.6z"/></g><path fill="url(#B)" stroke-width="1.5" d="M401.2 326.2c-4 5.5-6.1 9.8-7.9 13-1.7 3.2-.6 7.7 3.2 14 4.3 6.7 39 33.4 84.1 33.4 45.2 0 79.8-26.6 84-33.4 4-6.4 5-10.8 3.3-14s-3.9-7.5-7.9-13c0 8.3-28.7 38.5-79.4 38.5s-79.4-30.2-79.4-38.5z"/><g class="G"><path fill="url(#G)" d="m557.7 378.8 7.8-15.1-3.9-3.2c-1 3.8-5.5 5.1-6.3 10-.7 4.7 3 9.4 2.4 8.3z"/><path fill="url(#H)" d="M564.8 374.5s1.4-6.8-3-7.6-6.8 3.8-6.1 2c.6-2 3.2-4 3.7-10.7.3-6.7-.4-10.3-.4-10.3s1.8-8.7 8.8-7.5c7.2 1.3 7.5 7.6 7.5 9.9a9 9 0 0 1-.6 3.5z"/></g></g><path d="m539.2 351.7 1.5 2.8 1-.6-.7-2 .1-.3 1.7-1.2 4.4 8.7v.5l-1 .7.5.8 4.2-3-.4-.8-1 .6h-.3l-4.4-8.8 1.6-1.2h.4l1 1.6 1-.7-1.5-2.8-8 5.7zm-10.5 6.7.4.8.9-.4.3.1 3.9 8.9-.1.4-.8.6.3.8 4.1-2.5-.3-.8-.9.4h-.4l-1.8-4.3 4.3-2.4 1.8 4v.5l-1 .6.4.9 4.2-2.5-.4-.8-.9.4-.3-.2-3.8-8.8v-.4l.8-.6-.3-.8-4.1 2.5.3.8 1-.5.3.2 1.5 3.6-4.2 2.5-1.6-3.7.2-.4.8-.5-.4-.9zm-2.4 7.6.2.8 1.2-.3.4.1.9 3.7-.8.4c-2.5.8-4.4-.5-5.3-3.7-.8-3.2.2-5.6 2.5-6.4a3.5 4 0 0 1 1.4-.1l.3.2.8 1.7 1.2-.4-.7-3c-1.3 0-2.5.2-3.5.6-3.6 1.3-5.2 4.5-4.3 8.2 1 3.7 3.9 5.4 7.2 4.3a11.3 12.7 0 0 0 3.4-2L530 366l.2-.4.9-.4-.3-.9zm-9.7 10.3 4.7-1.7-.3-.9-1 .2-.3-.1-2.6-9.6.1-.3 1-.5-.2-.8-4.7 1.6.3.9 1-.3.4.2 2.5 9.5-.2.4-1 .4.3.9zm-25.5 4.6 8.3-.8-.3-3.4-1 .1-.2 2-.2.3-3.5.4-.4-4.9 2-.2.3.3.2 1.3h1l-.4-4.4h-1v1.4l-.2.4-2 .1-.4-4.4 3.1-.3.2.2.4 1.7 1.1-.1-.2-3-7.8.8v.9h1l.3.3.7 9.9-.1.3-1 .2v1zm-12.4-12.3v1h1l.2.3.1 9.9-.2.3-.9.2v.8h4.4v-.9h-1l-.2-.4V375h4.4v4.6l-.2.3-.9.1v1h4.4v-1h-1l-.1-.4-.2-10 .2-.3h1v-1h-4.5v1l1 .1.2.3v4l-4.3.1-.2-4 .3-.3h.9v-1zm-9.4-.3v3.3h1l.3-2 .2-.3h1.9v10.2l-.3.4h-1v1h4.6v-.9l-1-.1-.3-.4.1-10h1.8l.3.2.3 2h1v-3.3zM455 378.9l8 .4.2-3.3h-1l-.3 1.9-.2.2-3.5-.1.2-5 1.9.2.2.3.2 1.4h.8l.2-4.3h-.9l-.2 1.2-.2.3h-2l.2-4.6 3 .2.2.2.1 1.7h1.1v-2.9l-7.5-.4v.9l1 .2.1.3-.4 9.9-.2.3h-1v.9zm-18.6-5.4 4.4 1.6.2-.8-1-.5v-.4l2.5-9.5.3-.2 1 .3.2-.8-4.3-1.7-.2.9.9.4.2.4-2.7 9.4-.2.3-1-.3zm-7.6-3.3a8.4 9.4 0 0 0 2.6 1.6c2.4.8 4.3-.2 4.8-2.2a3 3.5 0 0 0-.5-3.2l-1.8-2c-.6-.9-.8-1.6-.6-2.5.3-.9 1.1-1.4 2.2-1 .4.2.8.4 1 .7v.3l-.2 2 1 .3.8-2.8a8 9 0 0 0-2.5-1.7c-2-.8-3.8.3-4.4 2.2a3.2 3.5 0 0 0 .4 2.8c.4 1 1 1.5 1.5 2 .9 1 1.2 2 1 2.9-.3 1-1.2 1.5-2.4 1a4 4.5 0 0 1-1.2-.8l-.1-.3.4-2.2-1.1-.4zm-9.8-4.6 7.4 4 1.2-3-1-.5-.9 1.7-.3.1-3.1-1.8 1.8-4.3 1.8 1v.3l-.3 1.3.8.5 1.6-4-.8-.4-.7 1.1-.3.2-1.7-1 1.6-4 2.7 1.5.1.3-.4 1.6 1 .5 1-2.6-6.8-3.9-.4.8.8.6.1.4-3.6 9h-.3l-.9-.3zm-1.1-15-3.7-2.9-.5.8.7.7.1.4-4.6 8.2-.4.1-.7-.5-.5.8 3.6 2.8c1.4 1 2.5 1.5 3.6 1.4 1.6-.2 3-1.2 4-3 1.8-3.4 1.3-6.6-1.6-8.8zm-1.6 0 .8.6c2 1.5 2.2 3.7.5 6.6-1.7 3-3.5 3.6-5.4 2l-.8-.4 5-8.7zm29.3 13-.1.8.9.3.1.4-1.7 9.7-.3.2h-1v.8l4.1 1 .2-.8-1-.4-.1-.3.7-4.1h.3c1.5.4 1.8 1.3 1.8 3.2.1.9.1 1.7.8 2.7.3.4.7.8 1.4.9a10.1 11.4 0 0 0 1.5.2l.1-.8h-.1c-1-.3-1.5-.7-1.5-1.8-.2-1 0-2-.4-3a2.6 2.9 0 0 0-1.3-1.4c1.7 0 2.7-.9 3-2.5.4-2-.5-3.5-2.9-4l-4.4-1.1zm3 1.7.6.2c1.4.4 2 1.4 1.7 2.9-.3 1.7-1.2 2.3-2.8 1.8l-.5-.1.9-4.8zm54.2 1 .1 1h1l.3.2 1.4 9.8-.2.3-1 .3.2.8 4.5-.8v-1l-1.1.2-.3-.3-.6-4h.3c1.6-.5 2.2.2 3 1.9.3.8.5 1.6 1.5 2.2.4.3 1 .4 1.8.3a12 13.6 0 0 0 1.6-.5l-.1-.9h-.2c-1.1.3-1.7 0-2.2-.9-.4-.8-.7-1.8-1.3-2.5-.4-.5-1-.8-1.8-.8 1.7-.8 2.5-2 2.3-3.7-.3-2-1.7-3-4.2-2.5zm3.5.5h.7c1.6-.4 2.5.2 2.8 1.8.2 1.6-.5 2.6-2.2 3h-.6l-.8-4.8z"/><g class="B"><g stroke="#000" class="G"><path fill="url(#I)" d="m401.5 378.8-7.8-15.1 3.9-3.2c1 3.8 5.5 5.1 6.3 10 .7 4.7-3 9.4-2.4 8.3z"/><path fill="url(#J)" d="M394.3 374.5s-1.4-6.8 3-7.6 6.8 3.8 6.2 2c-.7-2-3.3-4-3.7-10.7s.3-10.3.3-10.3-1.7-8.7-8.8-7.5c-7.1 1.3-7.5 7.6-7.5 9.9 0 2.2.7 3.5.7 3.5z"/></g><path fill="#0072c4" stroke="#fff" stroke-width="3.9" d="M480.5 356.1s-82-27-81.4-129.4l.6-135.6H561l.6 134.8c.5 102.4-81.4 130.1-81.4 130.1z"/><path d="M410.3 123.6l2-2 3.7-2.4c1-.6 3-1.1 3.7-1.6a9.2 10.3 0 0 0 3-2.8c.2-1.7.5-3 .5-5 1.3-1 2.4-1.6 3.6-2 1.7-.6 2-1.4 3.8-1.7 1-.4 2.8-.4 4.4-.4s2.7 1.4 4.2 1.6c1.8.8 2.6 1.4 4.1 2.8.7 1.2 1.3 2.2 2.6 3 1.1.6 2.2 1.6 3.4 2 1.5.9 2.7 1.4 3.8 2.8 1 .8 1.4 2 2.3 2.7a26.5 29.7 0 0 0 3.4 2.8c1.5 1.1 3 2 5.2 1.7 1.3 0 2.6-.3 4 0 1.8 0 3.4 0 4.8.5 1.8 0 3.2.2 4.8.4 1.5.2 3 .3 4.7.3 1.5.5 3 .4 4.8.4h9.5c1.7 0 3.4.1 4.7.4a37.4 42 0 0 0 4.7-.4c1.9 0 3.3-.3 5-.4h5.8c1.5.5 3.4.8 4.4 1.7 1.4.4 2 1.1 3.4 1.5 1 .6 2.6 1.6 3.4 2.8a18.1 20.3 0 0 1 2.7 4.4c1 1.5 1.3 3.3 2 5.2.4 1.8.7 3.5.7 5.5.4 1.7.3 3.6.3 5.6-.3 1.8-.4 3.8-1 5.5 0 2-.4 3.7-.7 5.2-.2 1.6-.6 2.7-.7 4.7v5.6c0 1.8-.4 3.2-.6 5.1a52 58.4 0 0 0-2.4 6 10.8 12 0 0 0-2.7 3.2c-.7.5-1.1 1.3-1 1.6 1.4.5 1 1.6 1 3.5l.7 5.2c.1 2 .5 3 1 4.4.6.8.7.4-.7.4-1 .8-2 .4-2.3-1.2a8.8 9.9 0 0 1-1.4-4.4c-.2-1.8-.5-3.6-1-4.8-.2-2.2-.7-2.2-2.7-2.4-1-.9-2.2-1.1-4-1.1-2 0-2-.2-2 2v5.6c-.4 1.6-1 2.8-1.5 4.3-1 .8-1.4 2.2-2.7 3.2-.5 1.8-1.4 2-3 2.4l-2-2.8c1-1.8 1.7-2 2.3-4a31.77 31.77 0 0 0 1.7-4c-.7-1.2-1.3-1.8-2-3.5a19.3 21.6 0 0 1-1.7-4.4c-1.1-.4-2.9-.5-3.7-1.2-1.7-.4-2.1 1.7-4 1.7h-4.8c-2.1 0-2.6 1.2-4.4 1.1-.5.2-1.8 0-3.7 0-1.5.6-3.2.4-4.8.4-1.7 0-3-.5-4.4-.8-1.5-.5-3-1-4.7-1.2-2 0-2.7.2-4 1.2-1 .7-2.6 2.3-3.7 3.2-.5 1.3-.8 3.5-1.5 5.1-.3 1.7-.9 2.6-1.2 4a13.5 15.1 0 0 0-1 4.8c-.2 2.6-.7 2.3-2.1 1.6-.6-1.2-1.5-2.3-2-3.6.2-2 .7-3 .7-5.1-.4-1.7-1.1-1.5-2-.5 0 2.1 0 3.7-.8 4.8a4.4 5 0 0 1-2 3.1c-.5 1.5-1.6 2.3-2.7 2.8-.2 0 0-.5 0-1.6-.8-1.7 0-3.3 0-5.5 0-2-.2-3.3.4-5.1 0-2-.8-3.8-1-5.2-.7-1.5-1.1-2.2-2.8-2.8-1.2-.6-3-1.2-3.7-2.5a7 7.9 0 0 0-3.1-2.7c-1.5-.6-2.3-1.2-3.4-2-1-1.3-1.9-1.8-2.3-3.5-.7-1.2-.8-3.5-1.3-5.2a15.9 17.8 0 0 0-1-4.7 17.8 20 0 0 0-1-4.8l-1.1-5.2c0-1.9 0-3.8-.4-5.5v-5.6l-.6-5.2c0-2.1-.3-3.3-.8-4.8-.7-1.4-.7-2-2-2.3-.8 1.2-2.2 1.8-4 2-1.2-.3-3-.6-4.4-1.2-1.4-.4-2.2-1-3.3-1.7a31.7 35.5 0 0 0-2.1-3c-.2-2.1-.6-3.2-.7-5.3 0-1.5 0-.6 1.4-2.7z" class="H"/><path fill="#fefefe" d="M430.3 138l.3-.4c-.6.7-.4.3 1-.3.6-.4 2-1.4 2.5-2 .6-.3 1.7-.7 2.2-1.3.6-.8 1.3-1.5 2.2-2.2.9-1 1.7-1.3 2.8-2 1.3-.2 1.9-.8 3.1-.3 1.2.3 1.7.3 2.6-.9 1-.6 2.1-1.4 2.5-2.4v-1.8c0 1.8-.4 2.5-1.5 3-.7 1.1-1.8 2.2-2.2 3.2-.7 1.2-.9 1.9-1.6 2.5-.7.9-1.7 1.4-2 2.8.4.7 0 1 .8 1.1.7.7 1.4.4 2.4 0a10.4 11.7 0 0 0 1.9-3.3l1.7-2.9c.8-.6 1.3-1.1 1.6-2.2 1-.6 1.8-1.3 2.5-2 .7-.4 1-.9 2-1.1a4.4 5 0 0 1-.7 3.1c-.2 1.6-.1 2.3.3 3.3.7.6.6 1 1 2 .4-1 .6-2.7.7-3.9v-.2c0 1.1 0 2.8-.3 3.6 0 1.6.4 2.4.8 3.6.3.7.7 1 1.1 1.4 0-1.6.5-2.6.6-4.1l.4 3.9c0 1.3.5 2.3 1 3.3.5.4.7 1.5.9.6.6-2 .6-4 1-6.2 0-1 0-2.6.5-3.3l-.6 3.3c.1-1 .2-2.5.6-3.3v-.4a28.6 32 0 0 1 .5 4.6c0 1.2-.1 2.4.2 3.6.7-.4 1.2-1.4 1.7-2.5a13.3 15 0 0 1 1.9-3.1l-2 3a13.3 15 0 0 1 2-3v-.2a29.5 33.1 0 0 0-.2 3.8c0 1.3 0 2.8.2 3.7.3 1.5.6 1.7.7 3.3 0 .8-.1 1.7.2 2 1 .3 1-.3 1.2-2 0-1.7.4-3 .5-4.7 0-2.1.2.3.5 1a9.5 10.7 0 0 1 .7 3.8c0 .8 0 1.6.2 2 1-.5 1.3-1.7 2-2.3.4-1.4 1-2 1.4-2.8 1.2-.3 1.2-.9 1.2-2.5 0-1.4-.1-2.8.3-4a30 33.7 0 0 0 .9-3.7c.4-.2.9.5 1.2 1.2.5.9.4 2.2.4 3.6.3 1.3.7 2.2 1.3 3.4a11 12.3 0 0 0 1.6 2.8c.3.9.3 2.5.3 3.7 1-1.2 1-3 1.1-4.8-.1-1.2-.1-2.8-.4-4 0-1.2-.3-2.4-.5-3.3-.7-.4-1-.8-.2-2 .7-.7 1.6-.4 2.8-.2.7.7.9 1.1 1 2.8 0 1.5 0 2.6.5 3.6.4.8.9 1.4 1.2 2.8.3.4.6 1 1.1.3.3-.8.5-2.4.8-3.4.2-1 .6-1.6 1.1-2 0 1.6 0 2.5.6 3.7l1.1 3.1c.5.4.6 1.3 1.3 1.7l.2-4.5v-4c0-1.2.4-2 .7-3 .8 1.1.8 1.5.8 3 .7-.3.8-1 1.1-1.9.5-.6.8-.8 1 .6.1 1.5.4 2.8.7 4.2.5.6 1 2.2 1.6 2.8a12 13.5 0 0 0 1.5 2.3c.4.8.4 1.4 1.5 1.6 0-1.9 0-3.8-.3-5.6 0-1.6-.3-2.2-.5-3.7-.4-.9-.6-2.4-.5-2.8a8 9 0 0 1 2.2 3.4l1.5 3.7a14.7 16.5 0 0 1 1.8 2.8c.9.8 1.3 1.7 2.2 2.5.4.5 1.5.8 1.7.5 0-1.6-.3-3-.7-4.4a6.6 7.4 0 0 0-.8-3.4c-1-.9-1.7-1.5-2.2-2.8-.3-.4-.3-.6-.4-1.4a19.3 21.6 0 0 1 3.4 3.9 5.1 5.8 0 0 0 1.9 2c.4.6 1.8 1.4 2.8 1.6a4.1 4.6 0 0 0 2.4 1.7l-2.4-1.6a4.1 4.6 0 0 0 2.4 1.6v.4a9.5 10.7 0 0 0-1.4-4.6 6.4 7.2 0 0 0-2.2-3 6.8 7.6 0 0 0-2.4-2.5c-.6-.9-1.6-2.4-2.2-2.8 1.1-.9 2.3.4 3.4 1 1 1.2 1.8 2.7 2.4 3.4a13.2 14.8 0 0 0 2.2 3.7c1 .7 1.7 1.3 2.6 2.2 1.4.4.9-.1.5-1.4-.5-1.6 0-1.6 1-.6.6.6 1.4 1.4 2.4 2 .3.6 1 1 1.6.6.3-.4.3-.4.3-.8-.5-1.8-1-3.2-2.2-3.7-.5-.9-1.5-1.7-2.2-2.5-.5-.8-1-1.3-1.4-2.3l1.4 2.2c-.5-.8-1-1.2-1.4-2.2h-.2c1.4 0 2 .5 3 1.2a5 5.6 0 0 1 2.2 2c.5.6 1.2 1.3 1.7 2.1l2.4 2c.8 1.2 1 2 1 3.6.4.9.5 2.5.7 3.4-.2 1.6-.7.3-.8-.6-.1-1.2-.6-1.1-1.4-.8 0 1.7.2 2.2.7 3.4a5.9 6.6 0 0 1-.9 2.8c-.6.4-.7-.8-1.2-1.4 0-1.7-.5-2-1.5-2.8v1.1c.6 1.2 1.2 2.3 1.2 3.9a8.8 9.9 0 0 1 .6 3.7c0 1.4 0 2.7-.3 4 0 1.4-.3 2-.3 3.6v7.9a17 19.2 0 0 0-.2 3.6l.2-3.6c-.2 1-.2 2.2-.2 3.6v.2c-.4-1.4-1-2.6-1.2-4a7.5 8.5 0 0 1-1.6-3c-.3-1.2-.3-2.6-.5-3.6-.4-1-.8-2-1.5-1.4-.3 2 0 3.3.7 5.3.4 1.3.4 2.5.8 3.7.5 1.5 1 1.6 0 3.3-.6 1-.8 1.2-1 2.3-.9.5-1.1.8-1.2 2-.3-1.1-1-2.4-1.4-3.7-.5-1.4-1-2.8-1.2-4-.6-.9-1.3-2.4-2-3l-1.8-3.3c-1-1.3-1.2-2-2-2.6-.1-.5-.4-1.3-1-.8 0 1.3 0 2.7.3 3.9.3 1.6.7 2.5.8 4.2v3c-.6-1.6-1.3-2.9-1.7-4.4-.6-.9-1.1-2.5-1.7-3-.4-1.2-.7-2.1-1.2-2.9-.1-.8-.5-.8-.8-1.4 0 1.6.5 2.2.8 3.3.5 1.2.6 2.9.5 3.5l-2-6a26 26 0 0 1-1.8-3.7c-.8-.9-1.5-1-2.2-1.6a4.3 4.9 0 0 1-1.7-1.4c.2 1.5.7 2.5 1 3.6.2 1.4.7 2.6.9 3.7-.2 2-.6-.5-1-1.4-.2-1.6-.7-2.4-1.1-3.3-.7-.6-1.3-1.5-2-2-.7-.3-.4 0-.4 1 0 1.8 0 3 .5 4 .5.8.5 1.9.5 3.4l-.3 4v2.1c-.5-1.1-1-1.9-1.5-3.3-.7-1.3-1-2.3-1.6-3.7-.5-.2-1.5-.4-2 0 .2 1.4.7 2 .8 3.7-1 1-.8 1.4-1.4-.3-.6-1.3-1.2-1.2-2-2-1.2-.1-.8-1-1.1-2.3 0-1 0-2-.3-3-1.3 0-2 0-2.9.8-.3.8-.2 2.5 0 3.7v3.9c-.3 1-.7 1-1 2.3-.4 1.1-.5 2.5-.9 3.3-.9.9-.5 1-1-.5v-9c0-1.5.3-2.3.3-3.7-.5-1.1-.6-1.4-2.2-1.4a6 6 0 0 0 0 2.8c0 1.4.1 2.7.3 3.7l.2 3.6c0 1.5-.3 2.7-1 3.3-.8.4 0 1-.9 1.3a11 12.3 0 0 1-2.6-2c-1-.3-1.8-.6-3.1-.6-1.6 0-1.6-.2-2.2-1.6a23 25.8 0 0 1-1-4.6c-.5-1.3-.6-2.2-1-3.7a4.5 5.1 0 0 0-1.4-2c-.3 1.6-.6 2.7-.6 4.3-.3.7-.4 2.4-.6 3-.4-.7-.6-2.4-1-3.5-.3-1.7-.7-2.8-2.3-2.2-1.6 0-1.6 0-1.6 2l1.9 3.2v4c0 1.6 0 2.1-1 2.4-.4-1.6-1.2-3.3-2.2-4.7 0-1.1-.4-.8-1.4-.8-.6 0-1.3-.1-1.7.3v2.4c-.5.2-.7 0-1.1-.5-.5.9-.2 2 0 3a10 10 0 0 1-1.2 3.2c-.2-.4-.4-.2 0-.2-1.7-.8-3-1.2-4.4-1.7-.7 0-1.4 1-1.8 1.7-1.3.4-1.8.8-3.2.8l-3 .2c-1 .3-2 .4-3.2.4-.6-.3-1.8-.3-2.1-.6.5-.8 1-1.2 1.4-2.5a14.7 16.5 0 0 0 2-2l1.8-2.3c.4-1.4 1-1.6 1.7-2.2 1.5 0 1.7.6 3.1.8 1.4.6 2.2.9 3-.3 1-.5 2-1.4 3.2-1.6l2.4-1.7c1-.7 1.5-1.5 2.4-2.3.3-1.1 1-2 .7-3.3-1.3-.4-2.1-.3-3 .5-.9 1-1 1.4-2.3 2.2-1 .4-1.4.9-2.6 1.2-1 .4-2.2.2-3.3.2s-2.5 0-3.1.4c1-.8 2.3-1.7 3.3-2 1-.7 1.4-1 2.7-1.2.6-.8 1.1-.8 1.4-2.2.4-1.6-1-1.1-2-.5-.9.2-2 1-2.8 1.3a10.5 11.8 0 0 1-3 .6c-.4-.5.1-.9.4-1.6 1-.5 1.3-.7 1.4-2-1.3.2-1.7.7-2.9.8a18 18 0 0 1-3.8.6h-3.3c-1.2 0-1.8-.3-3.2-.3-1-.6-1-.8-1-2.5.8-1 1.5-.8 3-.8l2.6-1.5c.9-.2 1.4-.6 1.2-1h-3.3c-1.4-.7 0-1 .7-1.5 1 0 2.3 0 3 .5 1.5 0 2-.5 3.1-1.6 1-.8 1.5-1.4 2.5-2 .7-.9 1.4-1.4 1.9-2.2 1-1 1.7-1.7 2.2-2.6.6-.4 1-.8.7-1.4-1.5.2-2.2.9-3.2 1.7a7.3 8.2 0 0 1-1.9 1.6 6 6.7 0 0 1-3.1 1.3c-1.2 0-2.2-.3-3.3-.4-1.3-.1-.2-.5.2-1.1.5-.3.9-1.2.5-2-1-.3-2.2-.2-3.3-.2h-3.4c-1.3 0-1.8-.4-2.7-.9-.2-.8 0-.5 1-.5a13.2 14.8 0 0 0 3.1-.6c1.1-.3 1.3-.8 1.5-2.2-1.2 0-2.4 0-3.1-.3zm-20.7-6.5c-.2-2-.7-3.1-.7-5.2 0-1.5 0-.6 1.4-2.7l2-2 3.7-2.4c1-.6 3-1.1 3.7-1.6a9.2 10.3 0 0 0 3-2.8c.2-1.7.4-3 .4-5 1.4-1 2.5-1.6 3.7-2 1.7-.6 2-1.4 3.8-1.7 1-.4 2.8-.4 4.4-.4s2.7 1.4 4.2 1.6c1.8.8 2.6 1.4 4 2.8.8 1.2 1.4 2.2 2.7 3 1.1.6 2.2 1.6 3.4 2 0 1.4.3 1.2-.6 1.2-.1 1.5-.4 1.3-1.7 1.4a5.9 6.6 0 0 1-2.2-2.3c.6-1.4.3 1.2 0 1.7-.5.6-.9 1.2-1.6.6-.4-1.4-.7-2.3-.7-4-.2-1.7-.7-.5-1 .3-.3 1.5-.2 2 .3 3.1-1.3 0-2.2-.2-3.1-.3-.9-.3-2 0-3 .6-1.2.9-.7.9-.2 2 1.1.3 2 1 3 1.6l3.3-.8c1.1-.5 2.2-.2 3.3 0 .6.4 1.4.4 1.7.8 0 .9 0 1.8-.3 2.3-.4.4-1 1.4-1.7 1.6a11.8 13.2 0 0 1-3.2 1.5c-1.5 0-2.1.4-3.2 1-.1 1.6-.5 1.9-1.7 2.4a7.5 8.5 0 0 1-3.3.8c-.7 0-1.4 0-1.7-.3a9.4 10.5 0 0 0 2-3.3c.2-.7.6-1 .2-1.5-1.4 0-1.8 0-2 1.6-.1 1.6-.6 1.9-1.6 2.4.3-1.4.3-2.5.7-3.7a18.3 20.6 0 0 1-3 .3c-.8.5-1.1.7-.8 1.6-1 .4-2.2.2-3.4 0-1 0-.4-.5-1.2-1-.5-1.1-1-1.4-2.2-1.4-.5.8-1.4 1-2 1.6-1.1.4-1.8 0-2.7-.5-1.2 0-1 .4-.7 1.4.5.3 0 .7.7.8.7.7 1.3.9 2.6.9 1-.4 2.2-.3 3.4-.3s1 .3 1 1.6c-.8.7-2 .6-3.2.6a12.2 13.7 0 0 1-2.9-.8c-1 0-2-.3-2.8 0-.4.5-1.5.7-.2.8.5.6 3.3.3 3.4 1.3.7.8.5 1.9-.6 1.9a1.6 1.8 0 0 0-1.7 0l-3.1.1c1.8.2-1.3-2.2-2-3.2z"/><path d="m417.1 122.2-1.4 1-2.9 2.3c-.5.5-.5.8-1.1.8 1-.1 1.6-.5 2.6-1 1.2-.2 2.4-.5 3-1.2.7-.2 0-1.3-.2-2zm11-13.2c.2 0 .5.8 1 1.4.4 1 .7 1.8.7 3 .3-1.3.8-2.4 1-3.9-.4-.8-.4-1-1.5-1.1 0 .8.2.2-1.2.6z" class="H"/><path fill="#c4c4c2" stroke="#000" d="M421.517 118.917c-.542 0 .868-.633 1.41-.76.434-1.013.651-1.647 1.41-2.28 1.193 0 1.844.507 2.386 1.393 1.084.38 1.41.887 2.603 1.14.542.507 1.084.507 0 .887-.651.38-1.627.507-2.82.507a6.95 6.95 0 0 0-2.82.887c-1.627 0-1.41 0-2.169-1.773z" stroke-width="1.061"/><path d="M432.5 109.2v.3c0-.8 0-.4.2 1.2a6.6 7.4 0 0 1 .5 3.3 5 5.5 0 0 0 1.5-2.5c0-2.2-.4-2.1-2.2-2.3zm8.8 32.3h.3c-.8 0-.3 0 .9-.8.8-.6 1.5-1.6 2.6-2a9.5 10.7 0 0 1 3.1-2c.6-.3 1.1-.8 1.7-.2-.1 1.3-.4 2-1.5 2.5-.5.8-1.3 1.3-2 1.6-.8.5-1.7.5-2 1.5-1.3.7-1.5.5-3-.6zm4.6 8.2c.3-.4 1.9-2.2 2.6-2.8a11 12.3 0 0 1 2.4-2.8c.7-1.2 1.6-2 2.2-3.1l1.9-2.8c0 1.2-.2 2.8.2 3.6a5.1 5.8 0 0 1-.8 3.4c-.5 1-1 1.6-2.2 2.3-1 .6-1.6.8-2.5 1.6a19 21.4 0 0 1-2.2 1.4c-.7.3-.4.3-1.6-.8zm-7.5 6.4h.3c-.7 0-.4 0 1-.8 1-1.2 1.8-1.7 3-2.2a7.5 8.5 0 0 0 3-.9c.5-.1 1-.5 1.3 0 .8 1.2 1 1.5-.2 2.3a6.9 7.7 0 0 1-2.4 1.4c-.6.5-1.8.5-3 .8-.8 0-1.4.1-1.8-.6l2 .6c-1 0-1.5.1-3.2-.6zm10.3 0v-.2c0 .8 0 .4.5-1.2 1-1.6 1.2-2.5 2.4-2.8.5-.8 1.5-1 2.6-1.4.5.8.1 1.8 0 2.8-.3 1-1.1 1.8-1.7 2.6-.7.5-1 1.1-2.2 1.4-.8 0-.3 0-1.6-1.2z" class="H"/><path d="M425.3 119.7c0 .7-.5 1.4-1.2 1.4s-1.2-.7-1.2-1.4c0-.8.6-1.4 1.2-1.4.7 0 1.2.5 1.2 1.4z"/><g fill="#005120" stroke="#002b0d" stroke-width="1.572"><path d="M428.82 196.129h.976c-3.037 0-1.193-.253 3.796 4.434 2.169-2.027 2.169-2.28 3.796 1.267 1.084 1.9 1.301-.253 2.928-2.28.759 4.054 1.193 8.234 3.796 4.434 3.037 0 6.073-.253 7.7 1.14 1.952 4.18 1.301-.76 2.82 1.14 4.338.507 4.229-4.307 8.784-5.574 2.82 4.18 4.121 1.013 7.591-1.013 2.711.76 5.206 5.447 5.748.887 2.169-4.054 2.277-3.8 3.796 0 2.169 2.28 3.037-1.013 4.772-2.153 3.253 2.153 6.832 2.533 11.495 1.14.868 3.674 2.82 2.027 4.88 1.013 4.229 2.153 5.639 2.787 10.519 0 2.386-3.294 1.084.127 2.82 2.28 3.579-1.267 2.603-1.52 6.724-1.14 4.229 0 4.555 0 5.748-3.294 2.169 2.407 2.82 4.18 5.748 1.14 4.555 0 3.145.633 5.748-1.267 2.061 5.067 2.494 1.52 4.88 3.42-1.341 3.742-3.706 6.86-6.724 8.867-1.844 3.8-3.037 7.6-6.724 9.121-2.711 3.167-5.639 5.067-8.676 7.854-4.121 1.267-8.676 1.013-13.339 1.013h-40.343c-2.82 1.773-7.591 2.533-11.495 3.42-4.338 0-9.435 0-12.472-1.14-2.061-2.407-5.639-5.067-7.591-7.854-2.169-1.9-2.169-5.574-3.904-7.854-1.518-3.167-2.169-8.234-3.796-11.147z"/><path d="M521.76 206.262v1.013c0-3.04.108-1.393-1.952 4.56-.325 1.393-1.301 1.773-2.82 2.28m-3.796-3.42h.976c-3.579 3.8-5.965 5.7-6.724 10.134l6.724-10.134c-3.579 3.8-5.965 5.7-6.724 10.134m-7.7-15.708s-.108 3.927-.976 5.574m-2.82 2.28v1.013zm-7.7-6.714h.976-1.084 0zm-53.682 0c.434 0 2.386 3.547 4.772 5.574-.542 3.294-1.518 7.094 0 10.134m2.928-8.994c.434 0 2.277 3.547 4.772 5.574l-4.772-5.574c.434 0 2.277 3.547 4.772 5.574v1.14c0-3.547-.217-7.094.976-8.994 1.084 2.153 2.386 5.447 2.82 2.28 5.422-.253 8.025-2.027 11.495-3.42 0 1.647-.217.887 1.084 2.28m65.069-4.56h.976c-1.844 1.773-3.253 5.447-4.772 7.854m-35.462-11.147h7.591"/></g><path fill="#fff" d="M425.9 214.3c-11.5 0-15.4 13.5-26.9 13.5h-.6v.8c0 9.4.6 18.1 1.8 26.2 10.6-.8 14.5-13.4 25.7-13.4 11.5 0 15.3 13.4 26.8 13.4 11.6 0 15.4-13.4 26.9-13.4s15.4 13.4 26.9 13.4 15.3-13.4 26.8-13.4c11 0 15 12.5 25.6 13.4a139 156.1 0 0 0 1.9-27h-.7c-11.5 0-15.3-13.4-26.8-13.4s-15.4 13.5-26.8 13.5c-11.5 0-15.4-13.5-27-13.5-11.4 0-15.3 13.5-26.8 13.5-11.4 0-15.3-13.5-26.8-13.5zm0 52.7c-9 0-13.2 8.2-20.2 11.8a111 124.5 0 0 0 8.6 20.5c3.3-2.8 6.7-5.2 11.6-5.2 11.5 0 15.3 13.5 26.8 13.5 11.6 0 15.4-13.5 26.9-13.5s15.4 13.5 26.8 13.5 15.4-13.5 26.9-13.5a18.3 20.6 0 0 1 11.3 5 112 125.7 0 0 0 8.6-20.4c-6.7-3.7-11-11.7-20-11.7-11.4 0-15.3 13.5-26.8 13.5S491 267 479.6 267s-15.4 13.5-26.9 13.5c-11.4 0-15.3-13.5-26.8-13.5zm53.7 52.7c-11.5 0-15.4 13.5-26.9 13.5-10.9 0-14.9-12-25-13.4a132 132 0 0 0 39.3 33c3.6-3.2 7.3 3.6 12.5 3.6 5.3 0 9-6.9 12.5-3.8a129.1 145 0 0 0 39-32.7c-9.8 1.7-14 13.3-24.6 13.3-11.5 0-15.3-13.5-26.8-13.5z"/></g><g transform="matrix(.86465 0 0 .97062 -175.4 2.5)"><g fill="none" class="C"><path d="M332.5 541.4a110 110 0 0 1 10.5-3l16.3 15.7-13.4 2.7z" transform="matrix(1.25 0 0 1.3 259.4 -430)" class="D"/><use xlink:href="#L" stroke-width=".6" transform="matrix(1.06 0 0 1.03 276.8 -178)"/><use xlink:href="#M" stroke-width=".4" transform="matrix(-1.25 0 0 1.76 1290.4 -502)"/><use xlink:href="#M" transform="matrix(-1.25 0 0 1.3 1321.3 -302)" class="D"/></g><g transform="matrix(1.25 0 0 1.3 259.4 -430)" class="C D"><g class="B E"><path d="M395.3 572.2l.9-73s2.6-.3 2.6 0l-.6 73c-.3.3-3.2.5-2.9 0zm28.5-69.8l-.6 61.3-2 2.4.6-63.7z"/><path d="M363 560.2s3 30 36.4 29.1 42.7-30.2 42.7-30.2l-14.5-.6c-.3 0-11.6 14-26.2 13.7s-19.2-3.8-22.4-6.7c-3.2-3-6-7.3-6-7.3l-17-6.7 1 6.4zm90.3-3l-1-4v-3.4l1.6-3.6-25.3 4-.1 6.8 24.8.1z"/></g><path d="M448.5 549.8l-.6 6h4.1l-.3-6zm-4.3.3l-.3 6.4 2.6-.3.3-6.1zm-4.4 6.4v-5l2.6-.9.3 5zm-5-.3l.6-4.4 3 .3.2 4.7zm-5.5 0l.3-3.8 3-.3v4.4zm-67.4 3.7c.9 0 7.6 1.5 7.6 1.5l7 9.3m-9.7-9.6c.3.3 6.1 19.8 34 19.8s34.6-22.1 34.6-22.1m4.4.6s-13.4 29-39 27c-25.5-2-29.6-11.6-31.6-16.6s-3.2-9-3.2-9" fill="none"/><g class="B E"><path d="M373.2 558.2c.3-1.7.3-54.4.3-54.4l-1.7-.2-.3 53.7 1.7 1zm-41.5-17.1l22 10.7-.5 1.5L332 543c0-.3.2-1.5-.3-2z"/><path d="M341.8 537.9c0 .8 3.2 18.6 3.2 18.6s2 .3 2 0l-3.4-18.3zm20.4.5c1.1 0 21-3.2 21-3.2l-.4 3.2-19.5 2z"/></g><path d="M365 514.3c.7 0 7 3.2 9.7 2.4s.9-3 1.4-3c.6 0 2.6 1.5 3.8.3 1.2-1.1 2-4.6 1.5-4.3-.6.3-16 5.8-16.3 4.6z" class="B F"/><path d="M362.5 521.6c1.1.3 23.8-6.1 23.8-6.1s0 2-.3 2l-23.5 6.1z" class="B E"/><path d="M415 512.6s1.5 3.5 3 2.9 2.9-1.8 2.9-1.8 1.2 3 3.2 2.4 3.2-3.8 3.2-3.8 2 .6 2.9.3 2-5 2-5l-17.1 5zm-1.7 28.2c-.3.6 1.5 2 3 2s2-2 2.3-1.4c.3.5.3 3.2 4 2.3s3.8-3.5 3.8-3.5-1.1.9 1.5 1.2 5.2-3.8 5-3.8c-.4 0-19 3.5-19.6 3.2z" class="B F"/><path d="M363.4 513.1a5 5 0 0 0 .2 2.7l19-6.4s.8-1.5 0-1.5-19.5 5.8-19.3 5.3zm25-4c.5 0 19.4-6.1 19.4-6.1s.3 2.6 0 2.6l-17.7 5.2-1.8-1.7z" class="B E"/><path d="M413.3 521.9s-2.9 3.2-2 7.5c.9 4.4 2 8.2 2.3 8.2s3.5-5.8 7-6.1 9.9 3.2 9.9 3.2-.9-7-.6-10.2 5.2-8.7 5.2-8.7l-21.8 6z" class="B F"/><path d="M386.9 516.6s-.6 2.7-.3 2.7l24.7-6.4V511l-24.4 5.5z" class="B E"/><path fill="#b6b6b4" d="M355.5 551.8s-5.8-.8-5.5.6c.3 1.5 2.9 2.9 3.2 3.8s-.9 4 .9 3.8c1.7-.3 3.4-1.5 3.4-2.4l-.3-5z" class="B"/><path d="M387.8 537.3v2l20.9-2.9-.6-1.5z" class="B E"/><path d="M363 540.8c.4 0 0 2.6 2.4 2 2.3-.6 2.9-2 2.9-2s.6 3.2 3.8 2.9 5-3.8 5-3.8.2 2.6 2.2 1.7 2.6-2.9 2.6-2.9l-18.3 2.6-.5-.5zm0-17.2s-2.6.9-1.7 6.1 3 8.2 3.2 8.2c.3 0 2.6-5 6.1-5.8 3.5-1 9.6 2.6 9.6 2.6s-.6-4.7.3-9a18 18 0 0 1 3.8-7.6l-21.2 5.5z" class="B F"/><path d="m411.9 538.7.3 1.8s21-2.6 21-3c0-.2 0-2-.4-2-.3 0-20.6 3.5-21 3.2zm-.3-18.6.3 2 24.7-6.6s.6-1.8.3-1.8-24.7 7.3-25.3 6.4z" class="B E"/><path fill="none" d="M414.2 510.8s-.3 1.8 0 1.8 18.3-4.4 18.3-4.7 1.8-2 .3-1.7c-1.4.3-18 5.5-18.6 4.6zm38.7 33.7l-18-28.4m-2.4 19.7c.3-.8 1.2-18.3 1.2-18.3"/><path d="M389 510c1 .2 3.1 3.2 4.3 2.6s2.9-2.4 2.9-2.4-.3 3.5 2 3c2.4-.6 2.7-3 2.7-3s1.7 1 3.2 0c1.4-.8 2.8-5.2 2.3-5.2s-16.9 5.2-17.5 5zm-.6 8.4c0 .6-3 5.2-2 9.6s2.5 8.4 2.8 8.4 4.7-4.6 8.5-5.5c3.7-.9 9.3 2.9 9 2.9s-1.5-4.4-1.5-7.6 4.4-13 4.4-13zm0 21c0 .2.8 2.2 2.9 2.2 2 0 2.3-2 2.3-2s-.3 3.5 2.9 3.2 4.3-3.5 4.3-3.5.3 1.8 3 .9c2.6-.9 6-3.8 5.8-3.8-.3 0-21 3.8-21.3 3z" class="B F"/></g><use xlink:href="#N" width="992.1" height="496.1" x="-6.6" y="7.3"/><use xlink:href="#N" width="992.1" height="496.1" x="6.6" y="3.8"/><use xlink:href="#N" width="992.1" height="496.1" y="11"/><path id="N" fill="#be0f17" stroke-width=".6" d="M409 477a1.9 1.9 0 1 1-3.8 0 1.9 1.9 0 0 1 3.8 0z" transform="matrix(.04 -1.07 1.02 .04 251.6 668)" class="B C"/><g fill="none" class="C D"><path d="M398.2 500c0-.2 9 3.8 9 4.1s32 42.8 32.3 42.8m-16-42.8l8.2 3.5 2.6 6.4m-61.4-10.4c-.3 0 9 7 9 7l1.2 5.7M341.3 546c4-1.7 32.2-26.4 32.2-26.4m-39.8 21.7l31.7-26.7m21.2 4l30 49.8m-3.6-29.2s3.5 11.7 7 13.5a86 86 0 0 1 7.6 4.6m-15-17.8s2.5 13.8 6 16.4 7 5.5 7 5.5" transform="matrix(1.25 0 0 1.3 259.4 -430)"/><g transform="matrix(1.25 0 0 1.3 256.3 -299.5)"><path d="M391 439s3.4 19.2 10.4 23.6l12.8 8.1"/><path d="M390.7 438.7s7.5 15.2 14 19.8c6.3 4.7 15 9 15 9M366.3 440c2 3.5 1.7 10.2 4 12.5a66 66 0 0 1 5.8 7.6m-9.3-19.9c1.2 1.7 4.4 10.4 6.4 13 1.5 2.4 16.3 17.2 16.3 17.2"/></g></g><g class="B C D"><path d="M384.6 471.1a2.2 2.2 0 1 1-4.4 0 2.2 2.2 0 0 1 4.4 0zm10.7 4.7a1.9 1.9 0 1 1-3.8 0 1.9 1.9 0 0 1 3.8 0zM409 477a1.9 1.9 0 1 1-3.8 0 1.9 1.9 0 0 1 3.8 0zm11.9-4.5c0 1-.7 1.7-1.6 1.7-.9 0-1.6-.8-1.6-1.7 0-.9.7-1.8 1.6-1.8.9 0 1.6.8 1.6 1.8zm9.6-5.7c0 .9-.9 1.6-1.9 1.6-1 0-1.9-.7-1.9-1.6 0-.9.9-1.6 1.9-1.6 1 0 1.9.7 1.9 1.6z" transform="matrix(1.25 0 0 1.3 256.3 -299.5)"/><path fill="red" d="M374.1 404.4c-.9.6-15.4 4.1-13.4 3.8s13.7 3 13.4 2 0-5.2 0-5.8zm24.7-4.3c-.6 0-9 3.2-8.7 3.2s9.6 2.6 9.3 2-.3-4.4-.6-5.2zm25.3 2.9c-.6.3-10.5 2.6-8.7 2.9s8.4 2.6 8.4 2c0-.5 0-4.6.3-5z" transform="matrix(1.25 0 0 1.3 256.3 -299.5)"/></g><g fill="none" class="C D"><use xlink:href="#M" transform="matrix(1.25 0 0 1.3 256.3 -299.5)"/><use xlink:href="#L" transform="matrix(1.25 0 0 1.36 225.3 -323.4)"/><use xlink:href="#M" transform="matrix(-1.25 0 0 1.32 1259.2 -307.3)"/></g><path d="m426.4 558.5 27.6.6.3-2-28.5-.3zm1.2-7.3c3.2 0 27.3-4.6 27.3-4.6s.9-3 0-3-27.3 5.6-27.3 5.6z" transform="matrix(1.25 0 0 1.3 259.4 -430)" class="B C D E"/><use xlink:href="#N" width="992.1" height="496.1" y="5.5"/></g><path fill="#012169" d="M0 0h320v240H0z"/><path fill="#fff" d="m37.5 0 122 90.5L281 0h39v31l-120 89.5 120 89V240h-40l-120-89.5L40.5 240H0v-30l119.5-89L0 32V0z"/><path fill="#c8102e" d="M212 140.5 320 220v20l-135.5-99.5zm-92 10 3 17.5-96 72H0zM320 0v1.5l-124.5 94 1-22L295 0zM0 0l119.5 88h-30L0 21z"/><path fill="#fff" d="M120.5 0v240h80V0zM0 80v80h320V80z"/><path fill="#c8102e" d="M0 96.5v48h320v-48zM136.5 0v240h48V0z"/></svg>